<?xml version="1.0" encoding="UTF-8" standalone="no"?>
<!DOCTYPE svg PUBLIC "-//W3C//DTD SVG 1.1//EN"
 "http://www.w3.org/Graphics/SVG/1.1/DTD/svg11.dtd">
<!-- Generated by graphviz version 2.42.3 (20191010.1750)
 -->
<!-- Title: snakemake_dag Pages: 1 -->
<svg width="866pt" height="404pt"
 viewBox="0.00 0.00 866.00 404.00" xmlns="http://www.w3.org/2000/svg" xmlns:xlink="http://www.w3.org/1999/xlink">
<g id="graph0" class="graph" transform="scale(1 1) rotate(0) translate(4 400)">
<title>snakemake_dag</title>
<polygon fill="white" stroke="transparent" points="-4,4 -4,-400 862,-400 862,4 -4,4"/>
<!-- 0 -->
<g id="node1" class="node">
<title>0</title>
<path fill="none" stroke="#d8ac56" stroke-width="2" stroke-dasharray="5,2" d="M451,-36C451,-36 421,-36 421,-36 415,-36 409,-30 409,-24 409,-24 409,-12 409,-12 409,-6 415,0 421,0 421,0 451,0 451,0 457,0 463,-6 463,-12 463,-12 463,-24 463,-24 463,-30 457,-36 451,-36"/>
<text text-anchor="middle" x="436" y="-15.5" font-family="sans" font-size="10.00">all</text>
</g>
<!-- 1 -->
<g id="node2" class="node">
<title>1</title>
<path fill="none" stroke="#d85656" stroke-width="2" stroke-dasharray="5,2" d="M259,-108C259,-108 229,-108 229,-108 223,-108 217,-102 217,-96 217,-96 217,-84 217,-84 217,-78 223,-72 229,-72 229,-72 259,-72 259,-72 265,-72 271,-78 271,-84 271,-84 271,-96 271,-96 271,-102 265,-108 259,-108"/>
<text text-anchor="middle" x="244" y="-87.5" font-family="sans" font-size="10.00">htseq</text>
</g>
<!-- 1&#45;&gt;0 -->
<g id="edge1" class="edge">
<title>1&#45;&gt;0</title>
<path fill="none" stroke="grey" stroke-width="2" d="M271.42,-78.28C276.9,-76.18 282.63,-74 288,-72 325.8,-57.93 369.28,-42.44 399.29,-31.86"/>
<polygon fill="grey" stroke="grey" stroke-width="2" points="400.65,-35.09 408.92,-28.47 398.33,-28.49 400.65,-35.09"/>
</g>
<!-- 2 -->
<g id="node3" class="node">
<title>2</title>
<path fill="none" stroke="#56d8a9" stroke-width="2" stroke-dasharray="5,2" d="M251,-180C251,-180 213,-180 213,-180 207,-180 201,-174 201,-168 201,-168 201,-156 201,-156 201,-150 207,-144 213,-144 213,-144 251,-144 251,-144 257,-144 263,-150 263,-156 263,-156 263,-168 263,-168 263,-174 257,-180 251,-180"/>
<text text-anchor="middle" x="232" y="-159.5" font-family="sans" font-size="10.00">bam_sort</text>
</g>
<!-- 2&#45;&gt;1 -->
<g id="edge7" class="edge">
<title>2&#45;&gt;1</title>
<path fill="none" stroke="grey" stroke-width="2" d="M234.97,-143.7C236.29,-135.98 237.88,-126.71 239.35,-118.11"/>
<polygon fill="grey" stroke="grey" stroke-width="2" points="242.83,-118.55 241.07,-108.1 235.93,-117.37 242.83,-118.55"/>
</g>
<!-- 3 -->
<g id="node4" class="node">
<title>3</title>
<path fill="none" stroke="#56a9d8" stroke-width="2" stroke-dasharray="5,2" d="M132.5,-252C132.5,-252 91.5,-252 91.5,-252 85.5,-252 79.5,-246 79.5,-240 79.5,-240 79.5,-228 79.5,-228 79.5,-222 85.5,-216 91.5,-216 91.5,-216 132.5,-216 132.5,-216 138.5,-216 144.5,-222 144.5,-228 144.5,-228 144.5,-240 144.5,-240 144.5,-246 138.5,-252 132.5,-252"/>
<text text-anchor="middle" x="112" y="-231.5" font-family="sans" font-size="10.00">sam2bam</text>
</g>
<!-- 3&#45;&gt;2 -->
<g id="edge8" class="edge">
<title>3&#45;&gt;2</title>
<path fill="none" stroke="grey" stroke-width="2" d="M141.36,-215.88C157.05,-206.72 176.56,-195.34 193.45,-185.48"/>
<polygon fill="grey" stroke="grey" stroke-width="2" points="195.66,-188.25 202.53,-180.19 192.13,-182.21 195.66,-188.25"/>
</g>
<!-- 4 -->
<g id="node5" class="node">
<title>4</title>
<path fill="none" stroke="#59d856" stroke-width="2" stroke-dasharray="5,2" d="M99,-324C99,-324 69,-324 69,-324 63,-324 57,-318 57,-312 57,-312 57,-300 57,-300 57,-294 63,-288 69,-288 69,-288 99,-288 99,-288 105,-288 111,-294 111,-300 111,-300 111,-312 111,-312 111,-318 105,-324 99,-324"/>
<text text-anchor="middle" x="84" y="-303.5" font-family="sans" font-size="10.00">align</text>
</g>
<!-- 4&#45;&gt;3 -->
<g id="edge9" class="edge">
<title>4&#45;&gt;3</title>
<path fill="none" stroke="grey" stroke-width="2" d="M90.92,-287.7C94.07,-279.81 97.88,-270.3 101.38,-261.55"/>
<polygon fill="grey" stroke="grey" stroke-width="2" points="104.69,-262.69 105.16,-252.1 98.19,-260.09 104.69,-262.69"/>
</g>
<!-- 5 -->
<g id="node6" class="node">
<title>5</title>
<path fill="none" stroke="#afd856" stroke-width="2" stroke-dasharray="5,2" d="M116,-396C116,-396 12,-396 12,-396 6,-396 0,-390 0,-384 0,-384 0,-372 0,-372 0,-366 6,-360 12,-360 12,-360 116,-360 116,-360 122,-360 128,-366 128,-372 128,-372 128,-384 128,-384 128,-390 122,-396 116,-396"/>
<text text-anchor="middle" x="64" y="-381" font-family="sans" font-size="10.00">clean_data</text>
<text text-anchor="middle" x="64" y="-370" font-family="sans" font-size="10.00">SAMPLE: SRR23285388</text>
</g>
<!-- 5&#45;&gt;4 -->
<g id="edge10" class="edge">
<title>5&#45;&gt;4</title>
<path fill="none" stroke="grey" stroke-width="2" d="M68.94,-359.7C71.17,-351.9 73.85,-342.51 76.33,-333.83"/>
<polygon fill="grey" stroke="grey" stroke-width="2" points="79.73,-334.68 79.11,-324.1 73,-332.76 79.73,-334.68"/>
</g>
<!-- 6 -->
<g id="node7" class="node">
<title>6</title>
<path fill="none" stroke="#d85656" stroke-width="2" stroke-dasharray="5,2" d="M339,-108C339,-108 309,-108 309,-108 303,-108 297,-102 297,-96 297,-96 297,-84 297,-84 297,-78 303,-72 309,-72 309,-72 339,-72 339,-72 345,-72 351,-78 351,-84 351,-84 351,-96 351,-96 351,-102 345,-108 339,-108"/>
<text text-anchor="middle" x="324" y="-87.5" font-family="sans" font-size="10.00">htseq</text>
</g>
<!-- 6&#45;&gt;0 -->
<g id="edge2" class="edge">
<title>6&#45;&gt;0</title>
<path fill="none" stroke="grey" stroke-width="2" d="M351.11,-72.05C365.86,-62.84 384.29,-51.32 400.21,-41.37"/>
<polygon fill="grey" stroke="grey" stroke-width="2" points="402.12,-44.3 408.75,-36.03 398.41,-38.36 402.12,-44.3"/>
</g>
<!-- 7 -->
<g id="node8" class="node">
<title>7</title>
<path fill="none" stroke="#56d8a9" stroke-width="2" stroke-dasharray="5,2" d="M334,-180C334,-180 296,-180 296,-180 290,-180 284,-174 284,-168 284,-168 284,-156 284,-156 284,-150 290,-144 296,-144 296,-144 334,-144 334,-144 340,-144 346,-150 346,-156 346,-156 346,-168 346,-168 346,-174 340,-180 334,-180"/>
<text text-anchor="middle" x="315" y="-159.5" font-family="sans" font-size="10.00">bam_sort</text>
</g>
<!-- 7&#45;&gt;6 -->
<g id="edge11" class="edge">
<title>7&#45;&gt;6</title>
<path fill="none" stroke="grey" stroke-width="2" d="M317.22,-143.7C318.22,-135.98 319.41,-126.71 320.51,-118.11"/>
<polygon fill="grey" stroke="grey" stroke-width="2" points="324,-118.47 321.8,-108.1 317.05,-117.58 324,-118.47"/>
</g>
<!-- 8 -->
<g id="node9" class="node">
<title>8</title>
<path fill="none" stroke="#56a9d8" stroke-width="2" stroke-dasharray="5,2" d="M293.5,-252C293.5,-252 252.5,-252 252.5,-252 246.5,-252 240.5,-246 240.5,-240 240.5,-240 240.5,-228 240.5,-228 240.5,-222 246.5,-216 252.5,-216 252.5,-216 293.5,-216 293.5,-216 299.5,-216 305.5,-222 305.5,-228 305.5,-228 305.5,-240 305.5,-240 305.5,-246 299.5,-252 293.5,-252"/>
<text text-anchor="middle" x="273" y="-231.5" font-family="sans" font-size="10.00">sam2bam</text>
</g>
<!-- 8&#45;&gt;7 -->
<g id="edge12" class="edge">
<title>8&#45;&gt;7</title>
<path fill="none" stroke="grey" stroke-width="2" d="M283.38,-215.7C288.26,-207.56 294.19,-197.69 299.58,-188.7"/>
<polygon fill="grey" stroke="grey" stroke-width="2" points="302.59,-190.48 304.74,-180.1 296.59,-186.88 302.59,-190.48"/>
</g>
<!-- 9 -->
<g id="node10" class="node">
<title>9</title>
<path fill="none" stroke="#59d856" stroke-width="2" stroke-dasharray="5,2" d="M252,-324C252,-324 222,-324 222,-324 216,-324 210,-318 210,-312 210,-312 210,-300 210,-300 210,-294 216,-288 222,-288 222,-288 252,-288 252,-288 258,-288 264,-294 264,-300 264,-300 264,-312 264,-312 264,-318 258,-324 252,-324"/>
<text text-anchor="middle" x="237" y="-303.5" font-family="sans" font-size="10.00">align</text>
</g>
<!-- 9&#45;&gt;8 -->
<g id="edge13" class="edge">
<title>9&#45;&gt;8</title>
<path fill="none" stroke="grey" stroke-width="2" d="M245.9,-287.7C250,-279.73 254.95,-270.1 259.49,-261.26"/>
<polygon fill="grey" stroke="grey" stroke-width="2" points="262.74,-262.6 264.2,-252.1 256.52,-259.4 262.74,-262.6"/>
</g>
<!-- 10 -->
<g id="node11" class="node">
<title>10</title>
<path fill="none" stroke="#afd856" stroke-width="2" stroke-dasharray="5,2" d="M262,-396C262,-396 158,-396 158,-396 152,-396 146,-390 146,-384 146,-384 146,-372 146,-372 146,-366 152,-360 158,-360 158,-360 262,-360 262,-360 268,-360 274,-366 274,-372 274,-372 274,-384 274,-384 274,-390 268,-396 262,-396"/>
<text text-anchor="middle" x="210" y="-381" font-family="sans" font-size="10.00">clean_data</text>
<text text-anchor="middle" x="210" y="-370" font-family="sans" font-size="10.00">SAMPLE: SRR23285389</text>
</g>
<!-- 10&#45;&gt;9 -->
<g id="edge14" class="edge">
<title>10&#45;&gt;9</title>
<path fill="none" stroke="grey" stroke-width="2" d="M216.67,-359.7C219.71,-351.81 223.38,-342.3 226.76,-333.55"/>
<polygon fill="grey" stroke="grey" stroke-width="2" points="230.07,-334.69 230.4,-324.1 223.54,-332.17 230.07,-334.69"/>
</g>
<!-- 11 -->
<g id="node12" class="node">
<title>11</title>
<path fill="none" stroke="#d85656" stroke-width="2" stroke-dasharray="5,2" d="M415,-108C415,-108 385,-108 385,-108 379,-108 373,-102 373,-96 373,-96 373,-84 373,-84 373,-78 379,-72 385,-72 385,-72 415,-72 415,-72 421,-72 427,-78 427,-84 427,-84 427,-96 427,-96 427,-102 421,-108 415,-108"/>
<text text-anchor="middle" x="400" y="-87.5" font-family="sans" font-size="10.00">htseq</text>
</g>
<!-- 11&#45;&gt;0 -->
<g id="edge3" class="edge">
<title>11&#45;&gt;0</title>
<path fill="none" stroke="grey" stroke-width="2" d="M408.9,-71.7C413,-63.73 417.95,-54.1 422.49,-45.26"/>
<polygon fill="grey" stroke="grey" stroke-width="2" points="425.74,-46.6 427.2,-36.1 419.52,-43.4 425.74,-46.6"/>
</g>
<!-- 12 -->
<g id="node13" class="node">
<title>12</title>
<path fill="none" stroke="#56d8a9" stroke-width="2" stroke-dasharray="5,2" d="M415,-180C415,-180 377,-180 377,-180 371,-180 365,-174 365,-168 365,-168 365,-156 365,-156 365,-150 371,-144 377,-144 377,-144 415,-144 415,-144 421,-144 427,-150 427,-156 427,-156 427,-168 427,-168 427,-174 421,-180 415,-180"/>
<text text-anchor="middle" x="396" y="-159.5" font-family="sans" font-size="10.00">bam_sort</text>
</g>
<!-- 12&#45;&gt;11 -->
<g id="edge15" class="edge">
<title>12&#45;&gt;11</title>
<path fill="none" stroke="grey" stroke-width="2" d="M396.99,-143.7C397.43,-135.98 397.96,-126.71 398.45,-118.11"/>
<polygon fill="grey" stroke="grey" stroke-width="2" points="401.95,-118.29 399.02,-108.1 394.96,-117.89 401.95,-118.29"/>
</g>
<!-- 13 -->
<g id="node14" class="node">
<title>13</title>
<path fill="none" stroke="#56a9d8" stroke-width="2" stroke-dasharray="5,2" d="M415.5,-252C415.5,-252 374.5,-252 374.5,-252 368.5,-252 362.5,-246 362.5,-240 362.5,-240 362.5,-228 362.5,-228 362.5,-222 368.5,-216 374.5,-216 374.5,-216 415.5,-216 415.5,-216 421.5,-216 427.5,-222 427.5,-228 427.5,-228 427.5,-240 427.5,-240 427.5,-246 421.5,-252 415.5,-252"/>
<text text-anchor="middle" x="395" y="-231.5" font-family="sans" font-size="10.00">sam2bam</text>
</g>
<!-- 13&#45;&gt;12 -->
<g id="edge16" class="edge">
<title>13&#45;&gt;12</title>
<path fill="none" stroke="grey" stroke-width="2" d="M395.25,-215.7C395.36,-207.98 395.49,-198.71 395.61,-190.11"/>
<polygon fill="grey" stroke="grey" stroke-width="2" points="399.11,-190.15 395.76,-180.1 392.11,-190.05 399.11,-190.15"/>
</g>
<!-- 14 -->
<g id="node15" class="node">
<title>14</title>
<path fill="none" stroke="#59d856" stroke-width="2" stroke-dasharray="5,2" d="M379,-324C379,-324 349,-324 349,-324 343,-324 337,-318 337,-312 337,-312 337,-300 337,-300 337,-294 343,-288 349,-288 349,-288 379,-288 379,-288 385,-288 391,-294 391,-300 391,-300 391,-312 391,-312 391,-318 385,-324 379,-324"/>
<text text-anchor="middle" x="364" y="-303.5" font-family="sans" font-size="10.00">align</text>
</g>
<!-- 14&#45;&gt;13 -->
<g id="edge17" class="edge">
<title>14&#45;&gt;13</title>
<path fill="none" stroke="grey" stroke-width="2" d="M371.66,-287.7C375.19,-279.73 379.46,-270.1 383.37,-261.26"/>
<polygon fill="grey" stroke="grey" stroke-width="2" points="386.58,-262.67 387.43,-252.1 380.18,-259.83 386.58,-262.67"/>
</g>
<!-- 15 -->
<g id="node16" class="node">
<title>15</title>
<path fill="none" stroke="#afd856" stroke-width="2" stroke-dasharray="5,2" d="M408,-396C408,-396 304,-396 304,-396 298,-396 292,-390 292,-384 292,-384 292,-372 292,-372 292,-366 298,-360 304,-360 304,-360 408,-360 408,-360 414,-360 420,-366 420,-372 420,-372 420,-384 420,-384 420,-390 414,-396 408,-396"/>
<text text-anchor="middle" x="356" y="-381" font-family="sans" font-size="10.00">clean_data</text>
<text text-anchor="middle" x="356" y="-370" font-family="sans" font-size="10.00">SAMPLE: SRR23285390</text>
</g>
<!-- 15&#45;&gt;14 -->
<g id="edge18" class="edge">
<title>15&#45;&gt;14</title>
<path fill="none" stroke="grey" stroke-width="2" d="M357.98,-359.7C358.86,-351.98 359.92,-342.71 360.9,-334.11"/>
<polygon fill="grey" stroke="grey" stroke-width="2" points="364.39,-334.44 362.05,-324.1 357.43,-333.64 364.39,-334.44"/>
</g>
<!-- 16 -->
<g id="node17" class="node">
<title>16</title>
<path fill="none" stroke="#d85656" stroke-width="2" stroke-dasharray="5,2" d="M489,-108C489,-108 459,-108 459,-108 453,-108 447,-102 447,-96 447,-96 447,-84 447,-84 447,-78 453,-72 459,-72 459,-72 489,-72 489,-72 495,-72 501,-78 501,-84 501,-84 501,-96 501,-96 501,-102 495,-108 489,-108"/>
<text text-anchor="middle" x="474" y="-87.5" font-family="sans" font-size="10.00">htseq</text>
</g>
<!-- 16&#45;&gt;0 -->
<g id="edge4" class="edge">
<title>16&#45;&gt;0</title>
<path fill="none" stroke="grey" stroke-width="2" d="M464.61,-71.7C460.24,-63.64 454.94,-53.89 450.1,-44.98"/>
<polygon fill="grey" stroke="grey" stroke-width="2" points="453.13,-43.22 445.29,-36.1 446.98,-46.56 453.13,-43.22"/>
</g>
<!-- 17 -->
<g id="node18" class="node">
<title>17</title>
<path fill="none" stroke="#56d8a9" stroke-width="2" stroke-dasharray="5,2" d="M496,-180C496,-180 458,-180 458,-180 452,-180 446,-174 446,-168 446,-168 446,-156 446,-156 446,-150 452,-144 458,-144 458,-144 496,-144 496,-144 502,-144 508,-150 508,-156 508,-156 508,-168 508,-168 508,-174 502,-180 496,-180"/>
<text text-anchor="middle" x="477" y="-159.5" font-family="sans" font-size="10.00">bam_sort</text>
</g>
<!-- 17&#45;&gt;16 -->
<g id="edge19" class="edge">
<title>17&#45;&gt;16</title>
<path fill="none" stroke="grey" stroke-width="2" d="M476.26,-143.7C475.93,-135.98 475.53,-126.71 475.16,-118.11"/>
<polygon fill="grey" stroke="grey" stroke-width="2" points="478.66,-117.95 474.73,-108.1 471.66,-118.25 478.66,-117.95"/>
</g>
<!-- 18 -->
<g id="node19" class="node">
<title>18</title>
<path fill="none" stroke="#56a9d8" stroke-width="2" stroke-dasharray="5,2" d="M514.5,-252C514.5,-252 473.5,-252 473.5,-252 467.5,-252 461.5,-246 461.5,-240 461.5,-240 461.5,-228 461.5,-228 461.5,-222 467.5,-216 473.5,-216 473.5,-216 514.5,-216 514.5,-216 520.5,-216 526.5,-222 526.5,-228 526.5,-228 526.5,-240 526.5,-240 526.5,-246 520.5,-252 514.5,-252"/>
<text text-anchor="middle" x="494" y="-231.5" font-family="sans" font-size="10.00">sam2bam</text>
</g>
<!-- 18&#45;&gt;17 -->
<g id="edge20" class="edge">
<title>18&#45;&gt;17</title>
<path fill="none" stroke="grey" stroke-width="2" d="M489.8,-215.7C487.9,-207.9 485.62,-198.51 483.52,-189.83"/>
<polygon fill="grey" stroke="grey" stroke-width="2" points="486.92,-189 481.15,-180.1 480.11,-190.65 486.92,-189"/>
</g>
<!-- 19 -->
<g id="node20" class="node">
<title>19</title>
<path fill="none" stroke="#59d856" stroke-width="2" stroke-dasharray="5,2" d="M513,-324C513,-324 483,-324 483,-324 477,-324 471,-318 471,-312 471,-312 471,-300 471,-300 471,-294 477,-288 483,-288 483,-288 513,-288 513,-288 519,-288 525,-294 525,-300 525,-300 525,-312 525,-312 525,-318 519,-324 513,-324"/>
<text text-anchor="middle" x="498" y="-303.5" font-family="sans" font-size="10.00">align</text>
</g>
<!-- 19&#45;&gt;18 -->
<g id="edge21" class="edge">
<title>19&#45;&gt;18</title>
<path fill="none" stroke="grey" stroke-width="2" d="M497.01,-287.7C496.57,-279.98 496.04,-270.71 495.55,-262.11"/>
<polygon fill="grey" stroke="grey" stroke-width="2" points="499.04,-261.89 494.98,-252.1 492.05,-262.29 499.04,-261.89"/>
</g>
<!-- 20 -->
<g id="node21" class="node">
<title>20</title>
<path fill="none" stroke="#afd856" stroke-width="2" stroke-dasharray="5,2" d="M554,-396C554,-396 450,-396 450,-396 444,-396 438,-390 438,-384 438,-384 438,-372 438,-372 438,-366 444,-360 450,-360 450,-360 554,-360 554,-360 560,-360 566,-366 566,-372 566,-372 566,-384 566,-384 566,-390 560,-396 554,-396"/>
<text text-anchor="middle" x="502" y="-381" font-family="sans" font-size="10.00">clean_data</text>
<text text-anchor="middle" x="502" y="-370" font-family="sans" font-size="10.00">SAMPLE: SRR23285391</text>
</g>
<!-- 20&#45;&gt;19 -->
<g id="edge22" class="edge">
<title>20&#45;&gt;19</title>
<path fill="none" stroke="grey" stroke-width="2" d="M501.01,-359.7C500.57,-351.98 500.04,-342.71 499.55,-334.11"/>
<polygon fill="grey" stroke="grey" stroke-width="2" points="503.04,-333.89 498.98,-324.1 496.05,-334.29 503.04,-333.89"/>
</g>
<!-- 21 -->
<g id="node22" class="node">
<title>21</title>
<path fill="none" stroke="#d85656" stroke-width="2" stroke-dasharray="5,2" d="M566,-108C566,-108 536,-108 536,-108 530,-108 524,-102 524,-96 524,-96 524,-84 524,-84 524,-78 530,-72 536,-72 536,-72 566,-72 566,-72 572,-72 578,-78 578,-84 578,-84 578,-96 578,-96 578,-102 572,-108 566,-108"/>
<text text-anchor="middle" x="551" y="-87.5" font-family="sans" font-size="10.00">htseq</text>
</g>
<!-- 21&#45;&gt;0 -->
<g id="edge5" class="edge">
<title>21&#45;&gt;0</title>
<path fill="none" stroke="grey" stroke-width="2" d="M523.75,-72.41C508.28,-63 488.73,-51.1 472.01,-40.92"/>
<polygon fill="grey" stroke="grey" stroke-width="2" points="473.42,-37.68 463.06,-35.47 469.78,-43.66 473.42,-37.68"/>
</g>
<!-- 22 -->
<g id="node23" class="node">
<title>22</title>
<path fill="none" stroke="#56d8a9" stroke-width="2" stroke-dasharray="5,2" d="M578,-180C578,-180 540,-180 540,-180 534,-180 528,-174 528,-168 528,-168 528,-156 528,-156 528,-150 534,-144 540,-144 540,-144 578,-144 578,-144 584,-144 590,-150 590,-156 590,-156 590,-168 590,-168 590,-174 584,-180 578,-180"/>
<text text-anchor="middle" x="559" y="-159.5" font-family="sans" font-size="10.00">bam_sort</text>
</g>
<!-- 22&#45;&gt;21 -->
<g id="edge23" class="edge">
<title>22&#45;&gt;21</title>
<path fill="none" stroke="grey" stroke-width="2" d="M557.02,-143.7C556.14,-135.98 555.08,-126.71 554.1,-118.11"/>
<polygon fill="grey" stroke="grey" stroke-width="2" points="557.57,-117.64 552.95,-108.1 550.61,-118.44 557.57,-117.64"/>
</g>
<!-- 23 -->
<g id="node24" class="node">
<title>23</title>
<path fill="none" stroke="#56a9d8" stroke-width="2" stroke-dasharray="5,2" d="M636.5,-252C636.5,-252 595.5,-252 595.5,-252 589.5,-252 583.5,-246 583.5,-240 583.5,-240 583.5,-228 583.5,-228 583.5,-222 589.5,-216 595.5,-216 595.5,-216 636.5,-216 636.5,-216 642.5,-216 648.5,-222 648.5,-228 648.5,-228 648.5,-240 648.5,-240 648.5,-246 642.5,-252 636.5,-252"/>
<text text-anchor="middle" x="616" y="-231.5" font-family="sans" font-size="10.00">sam2bam</text>
</g>
<!-- 23&#45;&gt;22 -->
<g id="edge24" class="edge">
<title>23&#45;&gt;22</title>
<path fill="none" stroke="grey" stroke-width="2" d="M601.91,-215.7C595.08,-207.3 586.74,-197.07 579.24,-187.86"/>
<polygon fill="grey" stroke="grey" stroke-width="2" points="581.96,-185.65 572.93,-180.1 576.53,-190.07 581.96,-185.65"/>
</g>
<!-- 24 -->
<g id="node25" class="node">
<title>24</title>
<path fill="none" stroke="#59d856" stroke-width="2" stroke-dasharray="5,2" d="M647,-324C647,-324 617,-324 617,-324 611,-324 605,-318 605,-312 605,-312 605,-300 605,-300 605,-294 611,-288 617,-288 617,-288 647,-288 647,-288 653,-288 659,-294 659,-300 659,-300 659,-312 659,-312 659,-318 653,-324 647,-324"/>
<text text-anchor="middle" x="632" y="-303.5" font-family="sans" font-size="10.00">align</text>
</g>
<!-- 24&#45;&gt;23 -->
<g id="edge25" class="edge">
<title>24&#45;&gt;23</title>
<path fill="none" stroke="grey" stroke-width="2" d="M628.04,-287.7C626.28,-279.98 624.16,-270.71 622.2,-262.11"/>
<polygon fill="grey" stroke="grey" stroke-width="2" points="625.55,-261.07 619.91,-252.1 618.73,-262.63 625.55,-261.07"/>
</g>
<!-- 25 -->
<g id="node26" class="node">
<title>25</title>
<path fill="none" stroke="#afd856" stroke-width="2" stroke-dasharray="5,2" d="M700,-396C700,-396 596,-396 596,-396 590,-396 584,-390 584,-384 584,-384 584,-372 584,-372 584,-366 590,-360 596,-360 596,-360 700,-360 700,-360 706,-360 712,-366 712,-372 712,-372 712,-384 712,-384 712,-390 706,-396 700,-396"/>
<text text-anchor="middle" x="648" y="-381" font-family="sans" font-size="10.00">clean_data</text>
<text text-anchor="middle" x="648" y="-370" font-family="sans" font-size="10.00">SAMPLE: SRR23285392</text>
</g>
<!-- 25&#45;&gt;24 -->
<g id="edge26" class="edge">
<title>25&#45;&gt;24</title>
<path fill="none" stroke="grey" stroke-width="2" d="M644.04,-359.7C642.28,-351.98 640.16,-342.71 638.2,-334.11"/>
<polygon fill="grey" stroke="grey" stroke-width="2" points="641.55,-333.07 635.91,-324.1 634.73,-334.63 641.55,-333.07"/>
</g>
<!-- 26 -->
<g id="node27" class="node">
<title>26</title>
<path fill="none" stroke="#d85656" stroke-width="2" stroke-dasharray="5,2" d="M644,-108C644,-108 614,-108 614,-108 608,-108 602,-102 602,-96 602,-96 602,-84 602,-84 602,-78 608,-72 614,-72 614,-72 644,-72 644,-72 650,-72 656,-78 656,-84 656,-84 656,-96 656,-96 656,-102 650,-108 644,-108"/>
<text text-anchor="middle" x="629" y="-87.5" font-family="sans" font-size="10.00">htseq</text>
</g>
<!-- 26&#45;&gt;0 -->
<g id="edge6" class="edge">
<title>26&#45;&gt;0</title>
<path fill="none" stroke="grey" stroke-width="2" d="M601.96,-77.84C597,-75.85 591.86,-73.83 587,-72 548.35,-57.41 503.66,-41.88 472.98,-31.44"/>
<polygon fill="grey" stroke="grey" stroke-width="2" points="473.74,-28 463.14,-28.1 471.49,-34.63 473.74,-28"/>
</g>
<!-- 27 -->
<g id="node28" class="node">
<title>27</title>
<path fill="none" stroke="#56d8a9" stroke-width="2" stroke-dasharray="5,2" d="M660,-180C660,-180 622,-180 622,-180 616,-180 610,-174 610,-168 610,-168 610,-156 610,-156 610,-150 616,-144 622,-144 622,-144 660,-144 660,-144 666,-144 672,-150 672,-156 672,-156 672,-168 672,-168 672,-174 666,-180 660,-180"/>
<text text-anchor="middle" x="641" y="-159.5" font-family="sans" font-size="10.00">bam_sort</text>
</g>
<!-- 27&#45;&gt;26 -->
<g id="edge27" class="edge">
<title>27&#45;&gt;26</title>
<path fill="none" stroke="grey" stroke-width="2" d="M638.03,-143.7C636.71,-135.98 635.12,-126.71 633.65,-118.11"/>
<polygon fill="grey" stroke="grey" stroke-width="2" points="637.07,-117.37 631.93,-108.1 630.17,-118.55 637.07,-117.37"/>
</g>
<!-- 28 -->
<g id="node29" class="node">
<title>28</title>
<path fill="none" stroke="#56a9d8" stroke-width="2" stroke-dasharray="5,2" d="M770.5,-252C770.5,-252 729.5,-252 729.5,-252 723.5,-252 717.5,-246 717.5,-240 717.5,-240 717.5,-228 717.5,-228 717.5,-222 723.5,-216 729.5,-216 729.5,-216 770.5,-216 770.5,-216 776.5,-216 782.5,-222 782.5,-228 782.5,-228 782.5,-240 782.5,-240 782.5,-246 776.5,-252 770.5,-252"/>
<text text-anchor="middle" x="750" y="-231.5" font-family="sans" font-size="10.00">sam2bam</text>
</g>
<!-- 28&#45;&gt;27 -->
<g id="edge28" class="edge">
<title>28&#45;&gt;27</title>
<path fill="none" stroke="grey" stroke-width="2" d="M723.34,-215.88C709.22,-206.81 691.69,-195.55 676.44,-185.76"/>
<polygon fill="grey" stroke="grey" stroke-width="2" points="678.07,-182.65 667.77,-180.19 674.29,-188.54 678.07,-182.65"/>
</g>
<!-- 29 -->
<g id="node30" class="node">
<title>29</title>
<path fill="none" stroke="#59d856" stroke-width="2" stroke-dasharray="5,2" d="M787,-324C787,-324 757,-324 757,-324 751,-324 745,-318 745,-312 745,-312 745,-300 745,-300 745,-294 751,-288 757,-288 757,-288 787,-288 787,-288 793,-288 799,-294 799,-300 799,-300 799,-312 799,-312 799,-318 793,-324 787,-324"/>
<text text-anchor="middle" x="772" y="-303.5" font-family="sans" font-size="10.00">align</text>
</g>
<!-- 29&#45;&gt;28 -->
<g id="edge29" class="edge">
<title>29&#45;&gt;28</title>
<path fill="none" stroke="grey" stroke-width="2" d="M766.56,-287.7C764.11,-279.9 761.16,-270.51 758.43,-261.83"/>
<polygon fill="grey" stroke="grey" stroke-width="2" points="761.71,-260.59 755.38,-252.1 755.04,-262.69 761.71,-260.59"/>
</g>
<!-- 30 -->
<g id="node31" class="node">
<title>30</title>
<path fill="none" stroke="#afd856" stroke-width="2" stroke-dasharray="5,2" d="M846,-396C846,-396 742,-396 742,-396 736,-396 730,-390 730,-384 730,-384 730,-372 730,-372 730,-366 736,-360 742,-360 742,-360 846,-360 846,-360 852,-360 858,-366 858,-372 858,-372 858,-384 858,-384 858,-390 852,-396 846,-396"/>
<text text-anchor="middle" x="794" y="-381" font-family="sans" font-size="10.00">clean_data</text>
<text text-anchor="middle" x="794" y="-370" font-family="sans" font-size="10.00">SAMPLE: SRR23285393</text>
</g>
<!-- 30&#45;&gt;29 -->
<g id="edge30" class="edge">
<title>30&#45;&gt;29</title>
<path fill="none" stroke="grey" stroke-width="2" d="M788.56,-359.7C786.11,-351.9 783.16,-342.51 780.43,-333.83"/>
<polygon fill="grey" stroke="grey" stroke-width="2" points="783.71,-332.59 777.38,-324.1 777.04,-334.69 783.71,-332.59"/>
</g>
</g>
</svg>
